<svg xmlns="http://www.w3.org/2000/svg" version="1.1" xmlns:xlink="http://www.w3.org/1999/xlink" xmlns:svgjs="http://svgjs.com/svgjs" width="1920" height="1080" preserveAspectRatio="none" viewBox="0 0 1920 1080"><g mask="url(&quot;#SvgjsMask1075&quot;)" fill="none"><rect width="1920" height="1080" x="0" y="0" fill="rgba(229, 230, 237, 1)"></rect><path d="M 0,190 C 96,240.4 288,432.6 480,442 C 672,451.4 768,261.4 960,237 C 1152,212.6 1248,320.2 1440,320 C 1632,319.8 1824,252.8 1920,236L1920 1080L0 1080z" fill="rgba(204, 205, 211, 1)"></path><path d="M 0,871 C 128,846.4 384,733 640,748 C 896,763 1024,954.4 1280,946 C 1536,937.6 1792,754 1920,706L1920 1080L0 1080z" fill="rgba(186, 187, 193, 1)"></path></g><defs><mask id="SvgjsMask1075"><rect width="1920" height="1080" fill="#ffffff"></rect></mask></defs></svg>